<svg xmlns="http://www.w3.org/2000/svg" width="32.191" height="32.191" viewBox="0 0 32.191 32.191">
  <g id="Group_22" data-name="Group 22" transform="translate(-1559.264 -68.227)">
    <g id="Group_20" data-name="Group 20">
      <path id="Path_18" data-name="Path 18" d="M1563.709,94.379l-.791-1.836,7.851-3.378.005-.352a8.026,8.026,0,1,1,9.2-.021l-.031.366,7.83,3.374-.791,1.837L1579.158,91a2.006,2.006,0,0,1-1.213-1.838v-.347a2.034,2.034,0,0,1,.879-1.66,6.025,6.025,0,1,0-6.93,0,2.041,2.041,0,0,1,.881,1.664v.345A2,2,0,0,1,1571.559,91Z" fill="#add4aa"/>
    </g>
    <g id="Group_21" data-name="Group 21">
      <path id="Path_19" data-name="Path 19" d="M1575.359,100.418a16.1,16.1,0,1,1,16.1-16.1A16.113,16.113,0,0,1,1575.359,100.418Zm0-30.191a14.1,14.1,0,1,0,14.1,14.1A14.111,14.111,0,0,0,1575.359,70.227Z" fill="#add4aa"/>
    </g>
  </g>
</svg>
